<?xml version="1.0" encoding="utf-8"?>
<!-- Generator: Adobe Illustrator 22.0.1, SVG Export Plug-In . SVG Version: 6.00 Build 0)  -->
<svg version="1.1" id="Layer_1" xmlns="http://www.w3.org/2000/svg" xmlns:xlink="http://www.w3.org/1999/xlink" x="0px" y="0px"
	 viewBox="0 0 617.24 282.76" enable-background="new 0 0 617.24 282.76" xml:space="preserve">
<g>
	<path fill="none" stroke="#1EAFE5" stroke-width="5" stroke-miterlimit="10" d="M13.59,7.17c2.38,0.32,4.62,1.16,6.89,1.86
		c15.93,4.92,31.48,10.91,47.08,16.77c14.21,5.33,28.48,10.53,43.2,14.35c12.9,3.35,25.97,5.67,39.29,6.38
		c2.96,0.16,5.92,0.24,8.88,0.37c0.23,0.01,0.45,0.04,0.98,0.1c-2.5,1.34-4.73,2.56-6.82,4c-5.94,4.1-10.59,9.36-14.07,15.67
		c-0.39,0.71-0.37,1.17,0.2,1.81c10.94,12.27,21.86,24.57,32.78,36.85c2.27,2.56,4.56,5.09,6.81,7.67c0.47,0.54,0.71,0.71,1.28,0.07
		c8.05-9.1,16.12-18.18,24.19-27.26c5.06-5.69,10.1-11.4,15.22-17.05c0.78-0.86,0.78-1.46,0.24-2.43
		c-4.58-8.19-11.09-14.35-19.41-18.64c-0.35-0.18-0.7-0.38-1.05-0.57c0.01-0.14,0.02-0.27,0.02-0.41c2.14,0,4.29,0.08,6.43-0.01
		c12.96-0.54,25.71-2.5,38.31-5.52c15.72-3.77,30.88-9.26,45.99-14.89c13.53-5.05,26.99-10.28,40.7-14.81
		c4.72-1.56,9.44-3.15,14.28-4.32c-0.11,0.49-0.56,0.57-0.91,0.76c-8.07,4.53-16.24,8.88-24.61,12.87
		c-3.37,1.61-6.32,4.01-9.38,6.17c-11.2,7.89-21.67,16.67-31.56,26.15c-10.52,10.09-19.99,21.11-29.21,32.36
		c-10.29,12.55-20.64,25.06-30.96,37.58c-5.03,6.1-10.05,12.21-15.12,18.29c-0.55,0.66-0.48,1.06,0.03,1.67
		c7.83,9.46,15.63,18.93,23.45,28.41c9.59,11.63,19.17,23.28,28.78,34.9c18.14,21.91,38.77,41.08,62.74,56.51
		c3.23,2.08,6.9,3.47,10.35,5.22c5.22,2.63,10.33,5.47,15.42,8.34c0.27,0.15,0.65,0.2,0.71,0.61c-2.15-0.21-4.14-1.03-6.17-1.65
		c-14.79-4.55-29.25-10.04-43.71-15.5c-13.16-4.97-26.37-9.81-39.87-13.77c-12.66-3.72-25.54-6.38-38.68-7.69
		c-5.41-0.54-10.83-0.86-16.27-0.92c-0.26,0-0.56,0.11-0.89-0.19c2.07-1.15,4.13-2.24,6.06-3.53c6.24-4.19,11.16-9.58,14.75-16.19
		c0.35-0.65,0.35-1.03-0.16-1.59c-13.12-14.74-26.23-29.49-39.33-44.24c-1-1.12-0.99-1.11-2.07,0.11
		c-8.23,9.27-16.47,18.52-24.71,27.79c-4.79,5.38-9.57,10.78-14.38,16.14c-0.62,0.69-0.69,1.19-0.23,2.01
		c4.6,8.34,11.19,14.58,19.63,18.92c0.36,0.18,0.72,0.37,1.08,0.56c-0.1,0.33-0.34,0.21-0.51,0.21c-17.48,0.11-34.59,2.85-51.4,7.49
		c-16.87,4.66-33.22,10.88-49.57,17.06c-14.28,5.4-28.59,10.68-43.27,14.91c-0.54,0.16-1.08,0.44-1.68,0.3
		c8.65-4.83,17.39-9.47,26.3-13.83c4.49-2.2,8.43-5.45,12.49-8.41c10-7.29,19.4-15.29,28.33-23.86c10.46-10.03,19.87-21,29.04-32.18
		c12.23-14.91,24.52-29.76,36.78-44.64c3.12-3.78,6.22-7.58,9.37-11.33c0.54-0.64,0.5-1-0.03-1.63
		c-12.05-14.57-24.06-29.17-36.11-43.75c-7.4-8.95-14.63-18.05-22.29-26.79C80.52,51.77,61.73,35.07,40.4,21.32
		c-1.82-1.17-3.91-1.93-5.86-2.88c-7.07-3.45-13.92-7.3-20.81-11.07C13.66,7.33,13.63,7.23,13.59,7.17z"/>
	<path fill="none" stroke="#1EAFE5" stroke-width="5" stroke-miterlimit="10" d="M405.26,158.01c-1.28-1.25-2.46-2.38-3.84-3.27
		c-2.38-1.54-4.99-2.32-7.82-2.33c-7.58-0.02-15.17,0.01-22.75-0.03c-0.98,0-1.26,0.26-1.25,1.24c0.04,5.32,0.04,10.63,0,15.95
		c-0.01,0.85,0.21,1.12,1.09,1.12c9.44-0.03,18.89,0.22,28.31-0.09c9.4-0.3,18.24-2.93,26.27-7.99c1.81-1.14,3.33-2.63,4.87-4.17
		c-0.27,0.72-0.53,1.44-0.82,2.15c-5.41,13.48-10.84,26.95-16.23,40.43c-0.3,0.74-0.6,1.08-1.48,1.08
		c-25.14-0.03-50.29-0.02-75.43-0.02c-0.2,0-0.4,0-0.92,0c1.97-1.45,3.72-2.71,5.29-4.19c3.34-3.15,5.33-6.75,5.31-11.59
		c-0.11-28.98-0.13-57.95,0.01-86.93c0.03-5.61-2.26-9.62-6.57-12.79c-1.12-0.82-2.32-1.55-3.53-2.35c0.34-0.24,0.71-0.13,1.05-0.13
		c25.8-0.01,51.61,0,77.41-0.03c1.15,0,1.41,0.32,1.41,1.43c-0.04,11.13-0.02,22.26-0.03,33.39c0,0.39,0.13,0.8-0.19,1.26
		c-1.85-2.03-3.79-3.9-6.02-5.46c-4.13-2.9-8.66-4.45-13.75-4.42c-8.16,0.05-16.32,0.01-24.48,0.01c-1.56,0-1.56,0-1.56,1.61
		c0,5.61,0,11.21,0,16.82c0,1.92-0.2,1.67,1.62,1.67c6.8,0.01,13.61-0.17,20.4,0.07c4.55,0.16,8.26-1.45,11.69-4.14
		c0.61-0.48,1.21-0.97,1.93-1.56C405.26,135.85,405.26,146.82,405.26,158.01z"/>
	<path fill="none" stroke="#1EAFE5" stroke-width="5" stroke-miterlimit="10" d="M253.46,84.09c0.68,0,1.08,0,1.49,0
		c25.68,0,51.35,0.01,77.03-0.03c1.25,0,1.56,0.3,1.55,1.55c-0.05,11.04-0.03,22.09-0.04,33.14c0,0.43,0.12,0.89-0.2,1.45
		c-1.01-1.03-1.94-2.05-2.95-2.99c-4.98-4.62-10.75-7.1-17.66-6.97c-7.99,0.15-15.99,0.05-23.99,0.01
		c-0.99-0.01-1.24,0.28-1.23,1.24c0.04,5.89,0.04,11.79,0,17.68c-0.01,0.98,0.28,1.23,1.24,1.23c7.17-0.04,14.34-0.12,21.51,0.02
		c3.47,0.07,6.47-0.99,9.24-2.9c1.17-0.81,2.29-1.7,3.56-2.65c0,11.03,0,21.91,0,32.96c-0.85-0.74-1.59-1.42-2.37-2.07
		c-2.74-2.27-5.9-3.37-9.45-3.37c-7.46-0.01-14.92,0.01-22.38-0.02c-0.97,0-1.36,0.16-1.36,1.26c0.04,11.37,0.01,22.75,0.03,34.13
		c0.01,5.17,2.85,8.79,6.73,11.76c1.1,0.84,2.27,1.59,3.56,2.48c-14.89,0-29.61,0-44.55,0c0.86-0.64,1.61-1.16,2.33-1.72
		c2.55-1.98,4.93-4.13,6.57-6.97c1.03-1.78,1.54-3.68,1.54-5.77c-0.02-29.43-0.08-58.86,0.05-88.28c0.02-5.4-2.11-9.34-6.25-12.44
		C256.25,85.91,254.96,85.11,253.46,84.09z"/>
	<path fill="none" stroke="#1EAFE5" stroke-width="5" stroke-miterlimit="10" d="M565.6,228.6c0.1-0.1,0.21-0.2,0.31-0.3
		c0.32,0.1,0.53,0.33,0.73,0.64C566.19,228.98,565.88,228.83,565.6,228.6z"/>
	<path fill="none" stroke="#1EAFE5" stroke-width="5" stroke-miterlimit="10" d="M565.91,228.3c-0.89-0.73-1.77-1.48-2.67-2.19
		c-3.54-2.75-7.18-5.39-10.62-8.27c-3.19-2.67-6.08-5.68-8.99-8.65c-4.9-5.01-9.65-10.16-14.09-15.57
		c-8.6-10.47-17.13-21.01-25.68-31.53c-2.18-2.68-4.34-5.38-6.53-8.09c0.21-0.15,0.33-0.27,0.47-0.33
		c7.26-3.28,11.98-8.95,15.09-16.1c3.38-7.79,4.04-15.92,2.75-24.21c-1.24-7.94-4.13-15.25-9.11-21.61
		c-3.67-4.68-8.35-7.66-14.54-7.66c-20.9,0-41.79,0-62.69,0c-0.42,0-0.84,0-1.61,0c2.76,1.86,5.11,3.59,7.08,5.77
		c2.33,2.58,3.53,5.5,3.52,9.07c-0.06,29.22-0.07,58.45,0,87.67c0.01,3.93-1.38,7.11-3.98,9.91c-1.93,2.08-4.2,3.76-6.7,5.47
		c14.95,0,29.69,0,44.67,0c-2.43-1.5-4.56-2.96-6.37-4.85c-2.29-2.39-4.01-5.14-4.04-8.51c-0.09-10.8-0.03-21.6-0.05-32.4
		c0-0.69,0.19-0.93,0.9-0.92c2.06,0.04,4.12,0.05,6.18,0c0.81-0.02,1.34,0.2,1.87,0.86c5.16,6.48,10.37,12.91,15.53,19.39
		c4.18,5.25,8.43,10.45,12.32,15.93c0.61,0.86,0.64,1.62,0.21,2.52c-0.88,1.82-2.16,3.31-3.67,4.61c-1.32,1.14-2.71,2.2-4.26,3.45
		c3.57-0.02,6.93,0.17,10.27,0.49c7.75,0.75,15.27,2.41,22.43,5.52c8.62,3.75,16.67,8.6,25.04,12.85
		c5.54,2.81,11.13,5.51,16.97,7.67C565.88,228.69,565.95,228.55,565.91,228.3z M482.26,130.37c-3.17,0.06-6.35,0.01-9.52,0.01
		c-3.3,0-6.6-0.03-9.89,0.02c-0.82,0.01-1.05-0.24-1.04-1.04c0.03-6.1,0.03-12.2,0-18.3c-0.01-0.86,0.3-1.01,1.07-1
		c6.35,0.03,12.7-0.01,19.05,0.02c4.6,0.02,9.03,3.25,10.25,7.38C494.03,123.74,489.07,130.24,482.26,130.37z"/>
	<path fill="none" stroke="#1EAFE5" stroke-width="5" stroke-miterlimit="10" d="M611.44,127.02c-0.76-6.99-2.16-13.82-4.97-20.29
		c-3.72-8.58-9.47-15.28-18.06-19.3c-6.51-3.04-13.44-4-20.54-4.08c-3.13,0.04-6.25,0.24-9.35,0.73
		c-13.26,2.08-22.93,9.04-28.69,21.23c-4.31,9.14-5.74,18.93-6.15,28.9c-0.34,8.36-0.06,16.72,0.95,25.04
		c0.82,6.71,2.13,13.32,4.71,19.62c4.71,11.51,12.92,19.14,25.1,22.11c9.49,2.31,19.03,2.2,28.45-0.43
		c8.19-2.28,14.75-6.96,19.51-14.07c3.2-4.78,5.18-10.08,6.56-15.62c2.44-9.82,3.02-19.84,3.16-29.89
		C612.17,136.3,611.94,131.65,611.44,127.02z M586.58,153.07c-0.18,5.31-0.63,10.61-2.38,15.68c-2.1,6.08-5.98,10.33-12.57,11.39
		c-6.63,1.07-12.69,0-17.18-5.56c-2.52-3.12-3.78-6.82-4.35-10.75c-1.12-7.73-1.04-15.52-1.03-24.17c0.1-4.2-0.22-9.27,0.28-14.33
		c0.37-3.78,0.92-7.52,2.44-11.04c2.44-5.69,6.81-8.83,12.89-9.63c2.96-0.39,5.92-0.27,8.82,0.54c6.23,1.75,9.61,6.21,11.23,12.18
		c1.47,5.41,1.62,10.98,1.75,16.54C586.61,140.3,586.8,146.69,586.58,153.07z"/>
</g>
</svg>
